<svg id="visual" viewBox="0 0 960 540" width="960" height="540" xmlns="http://www.w3.org/2000/svg" xmlns:xlink="http://www.w3.org/1999/xlink" version="1.1"><rect x="0" y="0" width="960" height="540" fill="#ffffff"></rect><path d="M0 139L22.8 153.3C45.7 167.7 91.3 196.3 137 202.8C182.7 209.3 228.3 193.7 274 202.2C319.7 210.7 365.3 243.3 411.2 243.2C457 243 503 210 548.8 216C594.7 222 640.3 267 686 269C731.7 271 777.3 230 823 225.8C868.7 221.7 914.3 254.3 937.2 270.7L960 287L960 0L937.2 0C914.3 0 868.7 0 823 0C777.3 0 731.7 0 686 0C640.3 0 594.7 0 548.8 0C503 0 457 0 411.2 0C365.3 0 319.7 0 274 0C228.3 0 182.7 0 137 0C91.3 0 45.7 0 22.8 0L0 0Z" fill="#9d84b7"></path><path d="M0 178L22.8 185.8C45.7 193.7 91.3 209.3 137 203.5C182.7 197.7 228.3 170.3 274 173.5C319.7 176.7 365.3 210.3 411.2 207.2C457 204 503 164 548.8 154.7C594.7 145.3 640.3 166.7 686 176.5C731.7 186.3 777.3 184.7 823 192.5C868.7 200.3 914.3 217.7 937.2 226.3L960 235L960 0L937.2 0C914.3 0 868.7 0 823 0C777.3 0 731.7 0 686 0C640.3 0 594.7 0 548.8 0C503 0 457 0 411.2 0C365.3 0 319.7 0 274 0C228.3 0 182.7 0 137 0C91.3 0 45.7 0 22.8 0L0 0Z" fill="#7b659d"></path><path d="M0 128L22.8 130.5C45.7 133 91.3 138 137 145.2C182.7 152.3 228.3 161.7 274 148.3C319.7 135 365.3 99 411.2 96C457 93 503 123 548.8 146C594.7 169 640.3 185 686 184.2C731.7 183.3 777.3 165.7 823 155.8C868.7 146 914.3 144 937.2 143L960 142L960 0L937.2 0C914.3 0 868.7 0 823 0C777.3 0 731.7 0 686 0C640.3 0 594.7 0 548.8 0C503 0 457 0 411.2 0C365.3 0 319.7 0 274 0C228.3 0 182.7 0 137 0C91.3 0 45.7 0 22.8 0L0 0Z" fill="#594783"></path><path d="M0 38L22.8 55.3C45.7 72.7 91.3 107.3 137 113.2C182.7 119 228.3 96 274 89.7C319.7 83.3 365.3 93.7 411.2 104.8C457 116 503 128 548.8 117.8C594.7 107.7 640.3 75.3 686 73.8C731.7 72.3 777.3 101.7 823 99.2C868.7 96.7 914.3 62.3 937.2 45.2L960 28L960 0L937.2 0C914.3 0 868.7 0 823 0C777.3 0 731.7 0 686 0C640.3 0 594.7 0 548.8 0C503 0 457 0 411.2 0C365.3 0 319.7 0 274 0C228.3 0 182.7 0 137 0C91.3 0 45.7 0 22.8 0L0 0Z" fill="#362c6b"></path><path d="M0 54L22.8 49C45.7 44 91.3 34 137 36.3C182.7 38.7 228.3 53.3 274 61.7C319.7 70 365.3 72 411.2 71.8C457 71.7 503 69.3 548.8 61.3C594.7 53.3 640.3 39.7 686 30C731.7 20.3 777.3 14.7 823 27.8C868.7 41 914.3 73 937.2 89L960 105L960 0L937.2 0C914.3 0 868.7 0 823 0C777.3 0 731.7 0 686 0C640.3 0 594.7 0 548.8 0C503 0 457 0 411.2 0C365.3 0 319.7 0 274 0C228.3 0 182.7 0 137 0C91.3 0 45.7 0 22.8 0L0 0Z" fill="#091353"></path></svg>