<svg width="100%" height="100%" id="svg" viewBox="0 0 1440 700" xmlns="http://www.w3.org/2000/svg" class="transition duration-300 ease-in-out delay-150"><defs><linearGradient id="gradient" x1="35%" y1="2%" x2="65%" y2="98%"><stop offset="5%" stop-color="#cdb4db88"></stop><stop offset="95%" stop-color="#ffafcc88"></stop></linearGradient></defs><path d="M 0,700 C 0,700 0,233 0,233 C 105.06666666666666,199.53333333333333 210.13333333333333,166.06666666666666 395,189 C 579.8666666666667,211.93333333333334 844.5333333333333,291.2666666666667 1032,308 C 1219.4666666666667,324.7333333333333 1329.7333333333333,278.8666666666667 1440,233 C 1440,233 1440,700 1440,700 Z" stroke="none" stroke-width="0" fill="url(#gradient)" class="transition-all duration-300 ease-in-out delay-150 path-0" transform="rotate(-180 720 350)"></path><defs><linearGradient id="gradient" x1="35%" y1="2%" x2="65%" y2="98%"><stop offset="5%" stop-color="#cdb4dbff"></stop><stop offset="95%" stop-color="#ffafccff"></stop></linearGradient></defs><path d="M 0,700 C 0,700 0,466 0,466 C 206.8,478 413.6,490 553,474 C 692.4,458 764.4000000000001,413.99999999999994 901,408 C 1037.6,402.00000000000006 1238.8,434 1440,466 C 1440,466 1440,700 1440,700 Z" stroke="none" stroke-width="0" fill="url(#gradient)" class="transition-all duration-300 ease-in-out delay-150 path-1" transform="rotate(-180 720 350)"></path></svg>