<?xml version="1.0" standalone="no"?>
<svg xmlns:xlink="http://www.w3.org/1999/xlink" id="wave" style="transform:rotate(0deg); transition: 0.3s" viewBox="0 0 1440 420" version="1.1" xmlns="http://www.w3.org/2000/svg"><defs><linearGradient id="sw-gradient-0" x1="0" x2="0" y1="1" y2="0"><stop stop-color="rgba(205, 180, 219, 1)" offset="0%"/><stop stop-color="rgba(255, 200, 221, 1)" offset="100%"/></linearGradient></defs><path style="transform:translate(0, 0px); opacity:1" fill="url(#sw-gradient-0)" d="M0,378L60,371C120,364,240,350,360,322C480,294,600,252,720,203C840,154,960,98,1080,63C1200,28,1320,14,1440,28C1560,42,1680,84,1800,133C1920,182,2040,238,2160,266C2280,294,2400,294,2520,266C2640,238,2760,182,2880,140C3000,98,3120,70,3240,84C3360,98,3480,154,3600,210C3720,266,3840,322,3960,336C4080,350,4200,322,4320,308C4440,294,4560,294,4680,301C4800,308,4920,322,5040,273C5160,224,5280,112,5400,56C5520,0,5640,0,5760,56C5880,112,6000,224,6120,224C6240,224,6360,112,6480,112C6600,112,6720,224,6840,231C6960,238,7080,140,7200,119C7320,98,7440,154,7560,196C7680,238,7800,266,7920,273C8040,280,8160,266,8280,231C8400,196,8520,140,8580,112L8640,84L8640,420L8580,420C8520,420,8400,420,8280,420C8160,420,8040,420,7920,420C7800,420,7680,420,7560,420C7440,420,7320,420,7200,420C7080,420,6960,420,6840,420C6720,420,6600,420,6480,420C6360,420,6240,420,6120,420C6000,420,5880,420,5760,420C5640,420,5520,420,5400,420C5280,420,5160,420,5040,420C4920,420,4800,420,4680,420C4560,420,4440,420,4320,420C4200,420,4080,420,3960,420C3840,420,3720,420,3600,420C3480,420,3360,420,3240,420C3120,420,3000,420,2880,420C2760,420,2640,420,2520,420C2400,420,2280,420,2160,420C2040,420,1920,420,1800,420C1680,420,1560,420,1440,420C1320,420,1200,420,1080,420C960,420,840,420,720,420C600,420,480,420,360,420C240,420,120,420,60,420L0,420Z"/><defs><linearGradient id="sw-gradient-1" x1="0" x2="0" y1="1" y2="0"><stop stop-color="rgba(189, 224, 254, 1)" offset="0%"/><stop stop-color="rgba(162, 210, 255, 1)" offset="100%"/></linearGradient></defs><path style="transform:translate(0, 50px); opacity:0.9" fill="url(#sw-gradient-1)" d="M0,252L60,252C120,252,240,252,360,210C480,168,600,84,720,63C840,42,960,84,1080,126C1200,168,1320,210,1440,217C1560,224,1680,196,1800,182C1920,168,2040,168,2160,154C2280,140,2400,112,2520,84C2640,56,2760,28,2880,14C3000,0,3120,0,3240,63C3360,126,3480,252,3600,287C3720,322,3840,266,3960,245C4080,224,4200,238,4320,266C4440,294,4560,336,4680,336C4800,336,4920,294,5040,266C5160,238,5280,224,5400,231C5520,238,5640,266,5760,273C5880,280,6000,266,6120,273C6240,280,6360,308,6480,266C6600,224,6720,112,6840,70C6960,28,7080,56,7200,98C7320,140,7440,196,7560,203C7680,210,7800,168,7920,189C8040,210,8160,294,8280,336C8400,378,8520,378,8580,378L8640,378L8640,420L8580,420C8520,420,8400,420,8280,420C8160,420,8040,420,7920,420C7800,420,7680,420,7560,420C7440,420,7320,420,7200,420C7080,420,6960,420,6840,420C6720,420,6600,420,6480,420C6360,420,6240,420,6120,420C6000,420,5880,420,5760,420C5640,420,5520,420,5400,420C5280,420,5160,420,5040,420C4920,420,4800,420,4680,420C4560,420,4440,420,4320,420C4200,420,4080,420,3960,420C3840,420,3720,420,3600,420C3480,420,3360,420,3240,420C3120,420,3000,420,2880,420C2760,420,2640,420,2520,420C2400,420,2280,420,2160,420C2040,420,1920,420,1800,420C1680,420,1560,420,1440,420C1320,420,1200,420,1080,420C960,420,840,420,720,420C600,420,480,420,360,420C240,420,120,420,60,420L0,420Z"/></svg>