<svg width="100%" height="100%" id="svg" viewBox="0 0 1440 700" xmlns="http://www.w3.org/2000/svg" class="transition duration-300 ease-in-out delay-150"><defs><linearGradient id="gradient" x1="35%" y1="2%" x2="65%" y2="98%"><stop offset="5%" stop-color="#bde0fe88"></stop><stop offset="95%" stop-color="#a2d2ff88"></stop></linearGradient></defs><path d="M 0,700 C 0,700 0,233 0,233 C 173.2,251 346.4,269 486,257 C 625.6,245 731.5999999999999,203.00000000000003 885,194 C 1038.4,184.99999999999997 1239.2,209 1440,233 C 1440,233 1440,700 1440,700 Z" stroke="none" stroke-width="0" fill="url(#gradient)" class="transition-all duration-300 ease-in-out delay-150 path-0"></path><defs><linearGradient id="gradient" x1="35%" y1="2%" x2="65%" y2="98%"><stop offset="5%" stop-color="#bde0feff"></stop><stop offset="95%" stop-color="#a2d2ffff"></stop></linearGradient></defs><path d="M 0,700 C 0,700 0,466 0,466 C 188.8,432 377.6,398 520,383 C 662.4,368 758.4000000000001,372 904,389 C 1049.6,406 1244.8,436 1440,466 C 1440,466 1440,700 1440,700 Z" stroke="none" stroke-width="0" fill="url(#gradient)" class="transition-all duration-300 ease-in-out delay-150 path-1"></path></svg>